<svg xmlns="http://www.w3.org/2000/svg" viewBox="0 0 256 256" role="img" aria-labelledby="title desc">
  <title id="title">QR Code logo</title>
  <desc id="desc">A dark rounded panel with a blue scanner sweep and white bracket marks.</desc>
  <defs>
    <linearGradient id="panel" x1="0" y1="0" x2="0" y2="1">
      <stop offset="0" stop-color="#1C1C1C"/>
      <stop offset="1" stop-color="#121212"/>
    </linearGradient>
    <linearGradient id="beam" x1="0" y1="0" x2="1" y2="1">
      <stop offset="0" stop-color="#4A90E2" stop-opacity=".24"/>
      <stop offset="1" stop-color="#4A90E2" stop-opacity=".05"/>
    </linearGradient>
  </defs>
  <rect width="256" height="256" rx="56" fill="#0A0A0A"/>
  <rect x="28" y="28" width="200" height="200" rx="40" fill="url(#panel)"/>
  <rect x="52" y="68" width="152" height="120" rx="28" fill="#121212"/>
  <path d="M128 128 L128 84 A44 44 0 0 1 159.11 96.89 Z" fill="url(#beam)"/>
  <path d="M103 91H92c-5.52 0-10 4.48-10 10v11" fill="none" stroke="#FFFFFF" stroke-linecap="round" stroke-width="8" stroke-opacity=".85"/>
  <path d="M153 91h11c5.52 0 10 4.48 10 10v11" fill="none" stroke="#FFFFFF" stroke-linecap="round" stroke-width="8" stroke-opacity=".85"/>
  <path d="M103 165H92c-5.52 0-10-4.48-10-10v-11" fill="none" stroke="#FFFFFF" stroke-linecap="round" stroke-width="8" stroke-opacity=".85"/>
  <path d="M153 165h11c5.52 0 10-4.48 10-10v-11" fill="none" stroke="#FFFFFF" stroke-linecap="round" stroke-width="8" stroke-opacity=".85"/>
  <circle cx="128" cy="128" r="4" fill="#FFFFFF" fill-opacity=".5"/>
</svg>
